G04 ================== begin FILE IDENTIFICATION RECORD ==================*
G04 Layout Name:  C:/Users/lices/Desktop/temperature_fix/LAYOUT/shtv3fix.brd*
G04 Film Name:    BOTTOM*
G04 File Format:  Gerber RS274X*
G04 File Origin:  Cadence Allegro -unreleased*
G04 Origin Date:  Tue Jun  8 12:03:22 2021*
G04 *
G04 Layer:  ETCH/BOTTOM*
G04 Layer:  PIN/BOTTOM*
G04 Layer:  VIA CLASS/BOTTOM*
G04 *
G04 Offset:    (0.0000 0.0000)*
G04 Mirror:    No*
G04 Mode:      Positive*
G04 Rotation:  0*
G04 FullContactRelief:  No*
G04 UndefLineWidth:     0.1000*
G04 ================== end FILE IDENTIFICATION RECORD ====================*
%FSLAX25Y25*MOMM*%
%IR0*IPPOS*OFA0.00000B0.00000*MIA0B0*SFA1.00000B1.00000*%
%ADD10C,.6096*%
%ADD11C,.1*%
G75*
%LPD*%
G75*
G36*
G01X706410Y653030D02*
G02I-65310J0D01*
G37*
G36*
G01X844590Y596430D02*
G02X796610Y659810I17871J63380D01*
G02X862460Y593960I65850J0D01*
G02X846120Y596020I2J65850D01*
G01Y596430D01*
X844590D01*
G37*
G36*
G01X698120Y841150D02*
G02I-64040J0D01*
G37*
G36*
G01X921900Y843910D02*
G02I-61990J0D01*
G37*
G54D10*
X613300Y635660D03*
X886640Y638540D03*
X611110Y862430D03*
X884580Y860440D03*
G54D11*
G01X716750Y571010D02*
X712690Y577360D01*
X707940Y580530D01*
X702530Y581590D01*
X695750Y579470D01*
X691010Y574180D01*
X689660Y567830D01*
X690330Y561480D01*
X693040Y556190D01*
X706590Y545610D01*
X712690Y538200D01*
X716750Y527610D01*
X718100Y518090D01*
X689660D01*
G01X827980Y532910D02*
X823920Y525500D01*
X818500Y521270D01*
X812400Y520210D01*
X806980Y521270D01*
X801560Y526560D01*
X798180Y532910D01*
X797500Y539260D01*
X798860Y546670D01*
X803600Y551960D01*
X808340Y554080D01*
X814430D01*
G01X808340D02*
X804270Y557250D01*
X800890Y562540D01*
X799530Y568890D01*
X800890Y575240D01*
X804270Y580530D01*
X810370Y583710D01*
X816470Y582650D01*
X822560Y578420D01*
G01X693720Y918460D02*
Y981960D01*
X701850Y969260D01*
G01Y918460D02*
X685590D01*
G01X796050Y916350D02*
Y979850D01*
X821110Y934340D01*
X787250D01*
M02*
